<svg xmlns="http://www.w3.org/2000/svg" viewBox="0 0 32 32">
  <defs>
    <!-- Enhanced gradients -->
    <radialGradient id="spaceBackground" cx="50%" cy="30%" r="70%">
      <stop offset="0%" stop-color="#1a1a2e"/>
      <stop offset="50%" stop-color="#16213e"/>
      <stop offset="100%" stop-color="#0a0a0a"/>
    </radialGradient>
    
    <radialGradient id="asteroidGradient" cx="30%" cy="25%" r="75%">
      <stop offset="0%" stop-color="#ff6b35"/>
      <stop offset="30%" stop-color="#e55a2b"/>
      <stop offset="70%" stop-color="#b8441f"/>
      <stop offset="100%" stop-color="#8a341a"/>
    </radialGradient>
    
    <radialGradient id="earthGradient" cx="35%" cy="25%" r="65%">
      <stop offset="0%" stop-color="#87ceeb"/>
      <stop offset="30%" stop-color="#4a90e2"/>
      <stop offset="70%" stop-color="#2e5cb8"/>
      <stop offset="100%" stop-color="#1e3a5f"/>
    </radialGradient>
    
    <linearGradient id="trailGradient" x1="0%" y1="0%" x2="100%" y2="0%">
      <stop offset="0%" stop-color="#ffeb3b" stop-opacity="0"/>
      <stop offset="30%" stop-color="#ff9800" stop-opacity="0.4"/>
      <stop offset="70%" stop-color="#ff6b35" stop-opacity="0.8"/>
      <stop offset="100%" stop-color="#ff5722" stop-opacity="1"/>
    </linearGradient>
    
    <!-- Filters for effects -->
    <filter id="glow" x="-50%" y="-50%" width="200%" height="200%">
      <feGaussianBlur stdDeviation="1.5" result="coloredBlur"/>
      <feMerge> 
        <feMergeNode in="coloredBlur"/>
        <feMergeNode in="SourceGraphic"/>
      </feMerge>
    </filter>
    
    <filter id="shadow" x="-20%" y="-20%" width="140%" height="140%">
      <feDropShadow dx="1" dy="1" stdDeviation="1" flood-color="#000" flood-opacity="0.6"/>
    </filter>
  </defs>
  
  <!-- Space background -->
  <rect width="32" height="32" fill="url(#spaceBackground)"/>
  
  <!-- Enhanced stars -->
  <circle cx="5" cy="4" r="0.6" fill="#ffffff" opacity="0.9"/>
  <circle cx="27" cy="3" r="0.4" fill="#ff6b35" opacity="0.8"/>
  <circle cx="29" cy="8" r="0.5" fill="#ffffff" opacity="0.7"/>
  <circle cx="3" cy="28" r="0.4" fill="#f7931e" opacity="0.6"/>
  <circle cx="25" cy="29" r="0.6" fill="#ffffff" opacity="0.8"/>
  
  <!-- Earth (improved) -->
  <circle cx="16" cy="18" r="8" fill="url(#earthGradient)" filter="url(#shadow)"/>
  
  <!-- Earth continents (more detailed) -->
  <path d="M12 15c2-1 4 0 5 1s2 2 1 3c-1 2-3 1-4 0s-2-2-2-4z" fill="#4a7c59" opacity="0.8"/>
  <path d="M18 16c1 0 2 1 2 2s0 2-1 2c-2 0-2-1-2-2s1-2 1-2z" fill="#4a7c59" opacity="0.7"/>
  <path d="M10 21c1-1 3 0 3 1s-1 2-2 2c-2 0-2-1-1-3z" fill="#4a7c59" opacity="0.6"/>
  
  <!-- Enhanced asteroid with trail -->
  <path d="M2 5L20 13L19 14L1 6Z" fill="url(#trailGradient)" opacity="0.8"/>
  <path d="M3 3L21 12L20 12.5L2 3.5Z" fill="#ffeb3b" opacity="0.5"/>
  
  <!-- Main asteroid body -->
  <path 
    d="M20 12c2-1 3 0 4 1s2 2 1 3c0 2-2 2-3 2s-3-1-3-2c0-2 1-3 1-4z"
    fill="url(#asteroidGradient)"
    filter="url(#shadow)"
  />
  
  <!-- Asteroid surface details -->
  <circle cx="21" cy="13" r="0.4" fill="#8a341a" opacity="0.8"/>
  <circle cx="22" cy="14" r="0.3" fill="#5a2318" opacity="0.9"/>
  
  <!-- Impact glow effect -->
  <circle cx="21" cy="13" r="2.5" fill="#ff6b35" opacity="0.2" filter="url(#glow)"/>
  
  <!-- Asteroid highlight -->
  <ellipse cx="20" cy="12" rx="1.5" ry="0.8" fill="#ffaa77" opacity="0.4" transform="rotate(-30 20 12)"/>
  
  <!-- Subtle Canadian maple leaf -->
  <g transform="translate(26,26) scale(0.15)" opacity="0.5">
    <path d="M8 2l2 4h4l-2 2 2 4-4-2-4 2 2-4-2-2h4z" fill="#ff6b35"/>
  </g>
</svg>